<?xml version="1.0" encoding="utf-8"?>
<!-- Generator: Adobe Illustrator 23.0.2, SVG Export Plug-In . SVG Version: 6.00 Build 0)  -->
<svg version="1.1" id="图层_1" xmlns="http://www.w3.org/2000/svg" xmlns:xlink="http://www.w3.org/1999/xlink" x="0px" y="0px"
	 viewBox="0 0 1024 1024" style="enable-background:new 0 0 1024 1024;" xml:space="preserve">
<style type="text/css">
	.st0{fill-rule:evenodd;clip-rule:evenodd;}
</style>
<g>
	<g id="cancel">
		<g>
			<path class="st0" d="M687.52,335.35c-13.81-13.81-36.27-13.76-50.17,0.13L511.44,461.4L385.52,335.48
				c-13.89-13.89-36.36-13.94-50.17-0.13c-13.82,13.82-13.74,36.28,0.14,50.17L461.4,511.44L335.49,637.36
				c-13.89,13.89-13.96,36.35-0.14,50.17c13.81,13.82,36.29,13.75,50.17-0.13l125.91-125.92l125.91,125.92
				c13.9,13.89,36.36,13.95,50.17,0.13c13.83-13.82,13.78-36.28-0.13-50.17L561.47,511.44l125.92-125.92
				C701.3,371.63,701.35,349.17,687.52,335.35z M453.79,68.12C254.32,93.27,93.24,254.36,68.11,453.84
				C31.23,746.59,277.43,992.78,570.19,955.88c199.48-25.14,360.56-186.23,385.7-385.7C992.78,277.41,746.55,31.2,453.79,68.12z
				 M448.8,879.77C294.23,854.4,169.57,729.72,144.22,575.15C102.37,319.91,319.9,102.38,575.14,144.22
				c154.58,25.34,279.26,150,304.63,304.57C921.68,704.07,704.08,921.68,448.8,879.77z"/>
		</g>
	</g>
</g>
</svg>
